<svg xmlns="http://www.w3.org/2000/svg" xmlns:xlink="http://www.w3.org/1999/xlink" width="190" zoomAndPan="magnify" viewBox="0 0 142.5 33.749998" height="45" preserveAspectRatio="xMidYMid meet" version="1.0"><defs><g/><clipPath id="id1"><path d="M 75.484375 18.371094 L 76.230469 18.371094 L 76.230469 19.117188 L 75.484375 19.117188 Z M 75.484375 18.371094 " clip-rule="nonzero"/></clipPath><clipPath id="id2"><path d="M 25 13 L 27.402344 13 L 27.402344 16 L 25 16 Z M 25 13 " clip-rule="nonzero"/></clipPath><clipPath id="id3"><path d="M 10 4.234375 L 13 4.234375 L 13 7 L 10 7 Z M 10 4.234375 " clip-rule="nonzero"/></clipPath><clipPath id="id4"><path d="M 1.253906 19 L 4 19 L 4 22 L 1.253906 22 Z M 1.253906 19 " clip-rule="nonzero"/></clipPath><clipPath id="id5"><path d="M 16 28 L 19 28 L 19 30.382812 L 16 30.382812 Z M 16 28 " clip-rule="nonzero"/></clipPath></defs><g clip-path="url(#id1)"><path fill="#ff7821" d="M 75.859375 18.972656 L 76.089844 19.117188 L 76.027344 18.84375 L 76.234375 18.65625 L 75.964844 18.632812 L 75.859375 18.371094 L 75.753906 18.632812 L 75.484375 18.65625 L 75.691406 18.84375 L 75.628906 19.117188 Z M 75.859375 18.972656 " fill-opacity="1" fill-rule="nonzero"/></g><path fill="#1264ab" d="M 14.011719 23.039062 C 12.410156 23.039062 9.648438 22.925781 9.207031 22.167969 C 8.824219 21.511719 8.671875 18.996094 8.660156 17.042969 C 8.652344 15.742188 8.695312 12.667969 9.257812 12.164062 C 9.867188 11.621094 13.617188 11.589844 14.359375 11.589844 C 15.371094 11.589844 18.714844 11.632812 19.347656 12.160156 C 19.953125 12.660156 20.011719 15.484375 19.992188 17.121094 C 19.972656 18.710938 19.824219 21.566406 19.394531 22.183594 C 18.816406 23.011719 14.503906 23.039062 14.011719 23.039062 Z M 14.359375 12.097656 C 11.417969 12.097656 9.804688 12.355469 9.597656 12.542969 C 9.425781 12.703125 9.152344 14.070312 9.171875 17.050781 C 9.1875 19.382812 9.390625 21.472656 9.648438 21.914062 C 9.789062 22.152344 11.097656 22.53125 14.011719 22.53125 C 16.925781 22.53125 18.792969 22.15625 18.976562 21.894531 C 19.199219 21.574219 19.449219 19.695312 19.480469 17.117188 C 19.515625 14.09375 19.21875 12.710938 19.023438 12.546875 C 18.757812 12.328125 17.035156 12.097656 14.359375 12.097656 Z M 14.359375 12.097656 " fill-opacity="1" fill-rule="nonzero"/><path fill="#1264ab" d="M 22.898438 19.277344 L 19.738281 19.277344 C 19.597656 19.277344 19.484375 19.164062 19.484375 19.023438 C 19.484375 18.882812 19.597656 18.769531 19.738281 18.769531 L 22.898438 18.769531 C 23.039062 18.769531 23.15625 18.882812 23.15625 19.023438 C 23.15625 19.164062 23.039062 19.277344 22.898438 19.277344 Z M 22.898438 19.277344 " fill-opacity="1" fill-rule="nonzero"/><path fill="#1264ab" d="M 22.898438 14.285156 L 19.738281 14.285156 C 19.597656 14.285156 19.484375 14.171875 19.484375 14.03125 C 19.484375 13.890625 19.597656 13.777344 19.738281 13.777344 L 22.898438 13.777344 C 23.039062 13.777344 23.15625 13.890625 23.15625 14.03125 C 23.15625 14.171875 23.039062 14.285156 22.898438 14.285156 Z M 22.898438 14.285156 " fill-opacity="1" fill-rule="nonzero"/><path fill="#1264ab" d="M 21.675781 15.976562 L 19.921875 15.976562 C 19.78125 15.976562 19.664062 15.863281 19.664062 15.722656 C 19.664062 15.582031 19.78125 15.46875 19.921875 15.46875 L 21.679688 15.46875 C 21.820312 15.46875 21.933594 15.582031 21.933594 15.722656 C 21.933594 15.863281 21.820312 15.976562 21.675781 15.976562 Z M 21.675781 15.976562 " fill-opacity="1" fill-rule="nonzero"/><path fill="#1264ab" d="M 23.257812 17.765625 L 19.738281 17.765625 C 19.597656 17.765625 19.484375 17.652344 19.484375 17.511719 C 19.484375 17.371094 19.597656 17.257812 19.738281 17.257812 L 23.050781 17.257812 L 25.675781 14.695312 C 25.773438 14.597656 25.9375 14.597656 26.035156 14.699219 C 26.132812 14.796875 26.132812 14.957031 26.03125 15.058594 Z M 23.257812 17.765625 " fill-opacity="1" fill-rule="nonzero"/><path fill="#1264ab" d="M 23.703125 20.746094 L 19.738281 20.746094 C 19.597656 20.746094 19.484375 20.632812 19.484375 20.492188 C 19.484375 20.351562 19.597656 20.238281 19.738281 20.238281 L 23.703125 20.238281 C 23.84375 20.238281 23.957031 20.351562 23.957031 20.492188 C 23.957031 20.632812 23.84375 20.746094 23.703125 20.746094 Z M 23.703125 20.746094 " fill-opacity="1" fill-rule="nonzero"/><path fill="#1264ab" d="M 24.503906 21.542969 C 23.921875 21.542969 23.445312 21.070312 23.445312 20.492188 C 23.445312 19.914062 23.921875 19.441406 24.503906 19.441406 C 25.085938 19.441406 25.5625 19.914062 25.5625 20.492188 C 25.5625 21.070312 25.085938 21.542969 24.503906 21.542969 Z M 24.503906 19.949219 C 24.203125 19.949219 23.957031 20.191406 23.957031 20.492188 C 23.957031 20.792969 24.203125 21.035156 24.503906 21.035156 C 24.804688 21.035156 25.050781 20.792969 25.050781 20.492188 C 25.050781 20.191406 24.804688 19.949219 24.503906 19.949219 Z M 24.503906 19.949219 " fill-opacity="1" fill-rule="nonzero"/><g clip-path="url(#id2)"><path fill="#1264ab" d="M 26.332031 15.144531 C 25.75 15.144531 25.277344 14.675781 25.277344 14.097656 C 25.277344 13.515625 25.75 13.046875 26.332031 13.046875 C 26.917969 13.046875 27.390625 13.515625 27.390625 14.097656 C 27.390625 14.675781 26.917969 15.144531 26.332031 15.144531 Z M 26.332031 13.554688 C 26.03125 13.554688 25.785156 13.796875 25.785156 14.097656 C 25.785156 14.394531 26.03125 14.640625 26.332031 14.640625 C 26.636719 14.640625 26.878906 14.394531 26.878906 14.097656 C 26.878906 13.796875 26.636719 13.554688 26.332031 13.554688 Z M 26.332031 13.554688 " fill-opacity="1" fill-rule="nonzero"/></g><path fill="#1264ab" d="M 16.066406 12.089844 C 15.925781 12.089844 15.8125 11.976562 15.8125 11.835938 L 15.8125 8.699219 C 15.8125 8.558594 15.925781 8.445312 16.066406 8.445312 C 16.210938 8.445312 16.324219 8.558594 16.324219 8.699219 L 16.324219 11.835938 C 16.324219 11.976562 16.210938 12.089844 16.066406 12.089844 Z M 16.066406 12.089844 " fill-opacity="1" fill-rule="nonzero"/><path fill="#1264ab" d="M 11.039062 12.089844 C 10.898438 12.089844 10.785156 11.976562 10.785156 11.835938 L 10.785156 8.699219 C 10.785156 8.558594 10.898438 8.445312 11.039062 8.445312 C 11.179688 8.445312 11.296875 8.558594 11.296875 8.699219 L 11.296875 11.835938 C 11.296875 11.976562 11.179688 12.089844 11.039062 12.089844 Z M 11.039062 12.089844 " fill-opacity="1" fill-rule="nonzero"/><path fill="#1264ab" d="M 12.742188 11.910156 C 12.601562 11.910156 12.488281 11.796875 12.488281 11.65625 L 12.488281 9.910156 C 12.488281 9.769531 12.601562 9.65625 12.742188 9.65625 C 12.882812 9.65625 13 9.769531 13 9.910156 L 13 11.65625 C 13 11.792969 12.882812 11.910156 12.742188 11.910156 Z M 12.742188 11.910156 " fill-opacity="1" fill-rule="nonzero"/><path fill="#1264ab" d="M 14.546875 12.089844 C 14.40625 12.089844 14.292969 11.976562 14.292969 11.835938 L 14.292969 8.546875 L 11.710938 5.941406 C 11.609375 5.84375 11.613281 5.683594 11.710938 5.585938 C 11.8125 5.484375 11.976562 5.488281 12.074219 5.585938 L 14.800781 8.339844 L 14.800781 11.835938 C 14.800781 11.976562 14.6875 12.089844 14.546875 12.089844 Z M 14.546875 12.089844 " fill-opacity="1" fill-rule="nonzero"/><path fill="#1264ab" d="M 17.546875 12.089844 C 17.40625 12.089844 17.292969 11.976562 17.292969 11.835938 L 17.292969 7.902344 C 17.292969 7.761719 17.40625 7.648438 17.546875 7.648438 C 17.6875 7.648438 17.804688 7.761719 17.804688 7.902344 L 17.804688 11.835938 C 17.804688 11.976562 17.6875 12.089844 17.546875 12.089844 Z M 17.546875 12.089844 " fill-opacity="1" fill-rule="nonzero"/><path fill="#1264ab" d="M 17.546875 8.15625 C 16.964844 8.15625 16.492188 7.683594 16.492188 7.105469 C 16.492188 6.527344 16.964844 6.054688 17.546875 6.054688 C 18.132812 6.054688 18.605469 6.527344 18.605469 7.105469 C 18.605469 7.683594 18.132812 8.15625 17.546875 8.15625 Z M 17.546875 6.5625 C 17.246094 6.5625 17 6.804688 17 7.105469 C 17 7.402344 17.246094 7.648438 17.546875 7.648438 C 17.851562 7.648438 18.09375 7.402344 18.09375 7.105469 C 18.09375 6.804688 17.851562 6.5625 17.546875 6.5625 Z M 17.546875 6.5625 " fill-opacity="1" fill-rule="nonzero"/><g clip-path="url(#id3)"><path fill="#1264ab" d="M 11.105469 6.339844 C 10.523438 6.339844 10.046875 5.867188 10.046875 5.289062 C 10.046875 4.710938 10.523438 4.238281 11.105469 4.238281 C 11.6875 4.238281 12.164062 4.710938 12.164062 5.289062 C 12.164062 5.867188 11.6875 6.339844 11.105469 6.339844 Z M 11.105469 4.746094 C 10.804688 4.746094 10.558594 4.988281 10.558594 5.289062 C 10.558594 5.585938 10.804688 5.832031 11.105469 5.832031 C 11.40625 5.832031 11.652344 5.585938 11.652344 5.289062 C 11.652344 4.988281 11.40625 4.746094 11.105469 4.746094 Z M 11.105469 4.746094 " fill-opacity="1" fill-rule="nonzero"/></g><path fill="#1264ab" d="M 8.921875 15.859375 L 5.757812 15.859375 C 5.617188 15.859375 5.503906 15.742188 5.503906 15.605469 C 5.503906 15.464844 5.617188 15.351562 5.757812 15.351562 L 8.921875 15.351562 C 9.0625 15.351562 9.175781 15.464844 9.175781 15.605469 C 9.175781 15.742188 9.0625 15.859375 8.921875 15.859375 Z M 8.921875 15.859375 " fill-opacity="1" fill-rule="nonzero"/><path fill="#1264ab" d="M 8.921875 20.847656 L 5.757812 20.847656 C 5.617188 20.847656 5.503906 20.734375 5.503906 20.597656 C 5.503906 20.457031 5.617188 20.34375 5.757812 20.34375 L 8.921875 20.34375 C 9.0625 20.34375 9.175781 20.457031 9.175781 20.597656 C 9.175781 20.734375 9.0625 20.847656 8.921875 20.847656 Z M 8.921875 20.847656 " fill-opacity="1" fill-rule="nonzero"/><path fill="#1264ab" d="M 8.738281 19.160156 L 6.980469 19.160156 C 6.839844 19.160156 6.726562 19.046875 6.726562 18.90625 C 6.726562 18.765625 6.839844 18.652344 6.980469 18.652344 L 8.738281 18.652344 C 8.878906 18.652344 8.992188 18.765625 8.992188 18.90625 C 8.992188 19.046875 8.878906 19.160156 8.738281 19.160156 Z M 8.738281 19.160156 " fill-opacity="1" fill-rule="nonzero"/><path fill="#1264ab" d="M 2.804688 20.003906 C 2.738281 20.003906 2.671875 19.980469 2.625 19.929688 C 2.523438 19.828125 2.527344 19.667969 2.625 19.570312 L 5.398438 16.859375 L 8.921875 16.859375 C 9.0625 16.859375 9.175781 16.976562 9.175781 17.113281 C 9.175781 17.253906 9.0625 17.367188 8.921875 17.367188 L 5.609375 17.367188 L 2.984375 19.929688 C 2.933594 19.980469 2.871094 20.003906 2.804688 20.003906 Z M 2.804688 20.003906 " fill-opacity="1" fill-rule="nonzero"/><path fill="#1264ab" d="M 8.921875 14.386719 L 4.957031 14.386719 C 4.816406 14.386719 4.703125 14.273438 4.703125 14.132812 C 4.703125 13.996094 4.816406 13.878906 4.957031 13.878906 L 8.921875 13.878906 C 9.0625 13.878906 9.175781 13.996094 9.175781 14.132812 C 9.175781 14.273438 9.0625 14.386719 8.921875 14.386719 Z M 8.921875 14.386719 " fill-opacity="1" fill-rule="nonzero"/><path fill="#1264ab" d="M 4.15625 15.183594 C 3.570312 15.183594 3.097656 14.714844 3.097656 14.132812 C 3.097656 13.554688 3.570312 13.085938 4.15625 13.085938 C 4.738281 13.085938 5.210938 13.554688 5.210938 14.132812 C 5.210938 14.714844 4.738281 15.183594 4.15625 15.183594 Z M 4.15625 13.589844 C 3.851562 13.589844 3.605469 13.835938 3.605469 14.132812 C 3.605469 14.433594 3.851562 14.675781 4.15625 14.675781 C 4.457031 14.675781 4.703125 14.433594 4.703125 14.132812 C 4.703125 13.835938 4.457031 13.589844 4.15625 13.589844 Z M 4.15625 13.589844 " fill-opacity="1" fill-rule="nonzero"/><g clip-path="url(#id4)"><path fill="#1264ab" d="M 2.324219 21.582031 C 1.742188 21.582031 1.265625 21.109375 1.265625 20.53125 C 1.265625 19.953125 1.742188 19.480469 2.324219 19.480469 C 2.90625 19.480469 3.382812 19.953125 3.382812 20.53125 C 3.382812 21.109375 2.90625 21.582031 2.324219 21.582031 Z M 2.324219 19.988281 C 2.023438 19.988281 1.777344 20.230469 1.777344 20.53125 C 1.777344 20.828125 2.023438 21.074219 2.324219 21.074219 C 2.625 21.074219 2.871094 20.828125 2.871094 20.53125 C 2.871094 20.230469 2.625 19.988281 2.324219 19.988281 Z M 2.324219 19.988281 " fill-opacity="1" fill-rule="nonzero"/></g><path fill="#1264ab" d="M 12.589844 26.183594 C 12.449219 26.183594 12.335938 26.070312 12.335938 25.929688 L 12.335938 22.789062 C 12.335938 22.652344 12.449219 22.539062 12.589844 22.539062 C 12.730469 22.539062 12.847656 22.652344 12.847656 22.789062 L 12.847656 25.929688 C 12.847656 26.070312 12.730469 26.183594 12.589844 26.183594 Z M 12.589844 26.183594 " fill-opacity="1" fill-rule="nonzero"/><path fill="#1264ab" d="M 17.617188 26.183594 C 17.476562 26.183594 17.363281 26.070312 17.363281 25.929688 L 17.363281 22.789062 C 17.363281 22.652344 17.476562 22.539062 17.617188 22.539062 C 17.757812 22.539062 17.875 22.652344 17.875 22.789062 L 17.875 25.929688 C 17.875 26.070312 17.757812 26.183594 17.617188 26.183594 Z M 17.617188 26.183594 " fill-opacity="1" fill-rule="nonzero"/><path fill="#1264ab" d="M 15.914062 24.96875 C 15.773438 24.96875 15.660156 24.855469 15.660156 24.714844 L 15.660156 22.972656 C 15.660156 22.832031 15.773438 22.71875 15.914062 22.71875 C 16.058594 22.71875 16.171875 22.832031 16.171875 22.972656 L 16.171875 24.714844 C 16.171875 24.855469 16.058594 24.96875 15.914062 24.96875 Z M 15.914062 24.96875 " fill-opacity="1" fill-rule="nonzero"/><path fill="#1264ab" d="M 16.765625 29.117188 C 16.703125 29.117188 16.636719 29.089844 16.585938 29.039062 L 13.855469 26.285156 L 13.855469 22.789062 C 13.855469 22.652344 13.972656 22.539062 14.113281 22.539062 C 14.253906 22.539062 14.367188 22.652344 14.367188 22.789062 L 14.367188 26.078125 L 16.949219 28.683594 C 17.046875 28.785156 17.046875 28.945312 16.945312 29.042969 C 16.898438 29.089844 16.832031 29.117188 16.765625 29.117188 Z M 16.765625 29.117188 " fill-opacity="1" fill-rule="nonzero"/><path fill="#1264ab" d="M 11.109375 26.980469 C 10.96875 26.980469 10.855469 26.867188 10.855469 26.726562 L 10.855469 22.789062 C 10.855469 22.652344 10.96875 22.539062 11.109375 22.539062 C 11.25 22.539062 11.367188 22.652344 11.367188 22.789062 L 11.367188 26.726562 C 11.367188 26.867188 11.25 26.980469 11.109375 26.980469 Z M 11.109375 26.980469 " fill-opacity="1" fill-rule="nonzero"/><path fill="#1264ab" d="M 11.109375 28.574219 C 10.527344 28.574219 10.054688 28.101562 10.054688 27.523438 C 10.054688 26.945312 10.527344 26.472656 11.109375 26.472656 C 11.695312 26.472656 12.167969 26.945312 12.167969 27.523438 C 12.167969 28.101562 11.695312 28.574219 11.109375 28.574219 Z M 11.109375 26.980469 C 10.808594 26.980469 10.5625 27.222656 10.5625 27.523438 C 10.5625 27.820312 10.808594 28.066406 11.109375 28.066406 C 11.410156 28.066406 11.65625 27.820312 11.65625 27.523438 C 11.65625 27.222656 11.414062 26.980469 11.109375 26.980469 Z M 11.109375 26.980469 " fill-opacity="1" fill-rule="nonzero"/><g clip-path="url(#id5)"><path fill="#1264ab" d="M 17.554688 30.386719 C 16.96875 30.386719 16.496094 29.917969 16.496094 29.339844 C 16.496094 28.761719 16.96875 28.289062 17.554688 28.289062 C 18.136719 28.289062 18.609375 28.761719 18.609375 29.339844 C 18.609375 29.917969 18.136719 30.386719 17.554688 30.386719 Z M 17.554688 28.796875 C 17.25 28.796875 17.007812 29.039062 17.007812 29.339844 C 17.007812 29.636719 17.25 29.882812 17.554688 29.882812 C 17.855469 29.882812 18.101562 29.636719 18.101562 29.339844 C 18.101562 29.039062 17.855469 28.796875 17.554688 28.796875 Z M 17.554688 28.796875 " fill-opacity="1" fill-rule="nonzero"/></g><path fill="#1463f3" d="M 14.203125 18.359375 C 13.609375 18.359375 13.125 17.878906 13.125 17.289062 C 13.125 16.695312 13.609375 16.214844 14.203125 16.214844 C 14.800781 16.214844 15.285156 16.695312 15.285156 17.289062 C 15.285156 17.878906 14.800781 18.359375 14.203125 18.359375 Z M 14.203125 16.722656 C 13.890625 16.722656 13.632812 16.976562 13.632812 17.289062 C 13.632812 17.601562 13.890625 17.855469 14.203125 17.855469 C 14.519531 17.855469 14.773438 17.601562 14.773438 17.289062 C 14.773438 16.976562 14.519531 16.722656 14.203125 16.722656 Z M 14.203125 16.722656 " fill-opacity="1" fill-rule="nonzero"/><path fill="#1463f3" d="M 14.347656 20.5625 C 14.210938 20.5625 13.871094 20.542969 13.714844 20.367188 C 13.667969 20.3125 13.582031 20.214844 13.53125 19.640625 C 13.425781 19.609375 13.320312 19.574219 13.214844 19.527344 C 12.800781 19.855469 12.664062 19.878906 12.601562 19.890625 C 12.582031 19.894531 12.558594 19.894531 12.539062 19.894531 C 12.3125 19.894531 12.097656 19.703125 11.992188 19.589844 C 11.882812 19.476562 11.707031 19.253906 11.722656 19.042969 C 11.726562 18.953125 11.761719 18.824219 12.046875 18.472656 C 11.980469 18.347656 11.921875 18.222656 11.875 18.089844 C 11.480469 18.039062 11.34375 17.976562 11.273438 17.925781 C 11.140625 17.832031 11.070312 17.660156 11.054688 17.40625 C 11.050781 17.324219 11.042969 16.890625 11.253906 16.707031 C 11.320312 16.648438 11.429688 16.582031 11.859375 16.535156 C 11.90625 16.398438 11.964844 16.261719 12.035156 16.132812 C 11.796875 15.824219 11.746094 15.6875 11.734375 15.601562 C 11.707031 15.453125 11.769531 15.292969 11.917969 15.117188 C 12.042969 14.972656 12.316406 14.726562 12.558594 14.726562 C 12.570312 14.726562 12.578125 14.726562 12.585938 14.726562 C 12.679688 14.734375 12.808594 14.765625 13.175781 15.0625 C 13.292969 15.011719 13.414062 14.964844 13.539062 14.933594 C 13.597656 14.441406 13.675781 14.332031 13.710938 14.28125 C 13.839844 14.101562 14.105469 14.066406 14.304688 14.066406 C 14.445312 14.066406 14.78125 14.085938 14.9375 14.261719 C 14.988281 14.316406 15.074219 14.417969 15.125 15.019531 C 15.214844 15.054688 15.300781 15.09375 15.386719 15.140625 C 15.839844 14.773438 15.992188 14.75 16.050781 14.738281 C 16.074219 14.734375 16.09375 14.734375 16.117188 14.734375 C 16.339844 14.734375 16.554688 14.925781 16.664062 15.039062 C 16.769531 15.152344 16.949219 15.375 16.933594 15.585938 C 16.929688 15.660156 16.917969 15.804688 16.464844 16.324219 C 16.492188 16.386719 16.519531 16.453125 16.539062 16.511719 C 16.835938 16.539062 17.222656 16.589844 17.382812 16.703125 C 17.511719 16.796875 17.585938 16.96875 17.597656 17.222656 C 17.601562 17.304688 17.613281 17.738281 17.402344 17.921875 C 17.34375 17.96875 17.230469 18.070312 16.523438 18.117188 C 16.5 18.179688 16.476562 18.238281 16.457031 18.292969 C 16.648438 18.519531 16.886719 18.832031 16.921875 19.027344 C 16.945312 19.171875 16.882812 19.335938 16.738281 19.511719 C 16.613281 19.65625 16.335938 19.902344 16.09375 19.902344 C 16.085938 19.902344 16.078125 19.902344 16.070312 19.902344 C 15.996094 19.898438 15.851562 19.886719 15.347656 19.457031 C 15.277344 19.492188 15.203125 19.523438 15.128906 19.554688 C 15.070312 20.164062 14.976562 20.300781 14.941406 20.347656 C 14.8125 20.527344 14.546875 20.5625 14.347656 20.5625 Z M 14.105469 20.023438 C 14.148438 20.039062 14.238281 20.054688 14.347656 20.054688 C 14.441406 20.054688 14.503906 20.042969 14.535156 20.035156 C 14.5625 19.949219 14.609375 19.695312 14.636719 19.351562 L 14.648438 19.183594 L 14.808594 19.132812 C 14.960938 19.082031 15.105469 19.015625 15.242188 18.929688 L 15.40625 18.828125 L 15.546875 18.957031 C 15.832031 19.210938 16.023438 19.34375 16.101562 19.386719 C 16.199219 19.339844 16.371094 19.179688 16.410156 19.09375 C 16.367188 18.996094 16.171875 18.734375 15.96875 18.507812 L 15.863281 18.390625 L 15.925781 18.242188 C 15.925781 18.242188 16.042969 17.964844 16.085938 17.804688 L 16.136719 17.628906 L 16.320312 17.621094 C 16.6875 17.601562 16.957031 17.566406 17.058594 17.535156 C 17.09375 17.433594 17.101562 17.199219 17.066406 17.109375 C 16.96875 17.070312 16.640625 17.023438 16.339844 17.007812 L 16.167969 16.996094 L 16.113281 16.835938 C 16.085938 16.75 16 16.511719 15.9375 16.394531 L 15.855469 16.238281 L 15.976562 16.109375 C 16.234375 15.820312 16.371094 15.632812 16.414062 15.554688 C 16.367188 15.457031 16.207031 15.285156 16.117188 15.246094 C 16.050781 15.277344 15.863281 15.402344 15.578125 15.644531 L 15.429688 15.765625 L 15.269531 15.664062 C 15.125 15.570312 14.96875 15.496094 14.804688 15.441406 L 14.640625 15.390625 L 14.628906 15.21875 C 14.605469 14.863281 14.570312 14.679688 14.550781 14.605469 C 14.503906 14.589844 14.414062 14.574219 14.308594 14.574219 C 14.210938 14.574219 14.148438 14.585938 14.121094 14.59375 C 14.101562 14.652344 14.058594 14.824219 14.027344 15.160156 L 14.011719 15.347656 L 13.824219 15.386719 C 13.628906 15.421875 13.4375 15.492188 13.265625 15.585938 L 13.109375 15.671875 L 12.976562 15.558594 C 12.726562 15.34375 12.601562 15.269531 12.554688 15.242188 C 12.457031 15.289062 12.285156 15.449219 12.246094 15.535156 C 12.265625 15.574219 12.332031 15.695312 12.539062 15.949219 L 12.65625 16.089844 L 12.558594 16.246094 C 12.441406 16.425781 12.355469 16.625 12.304688 16.832031 L 12.261719 17.007812 L 12.078125 17.023438 C 11.78125 17.050781 11.648438 17.078125 11.597656 17.09375 C 11.558594 17.195312 11.554688 17.429688 11.585938 17.519531 C 11.640625 17.539062 11.796875 17.574219 12.097656 17.605469 L 12.273438 17.621094 L 12.316406 17.789062 C 12.371094 17.992188 12.457031 18.179688 12.574219 18.355469 L 12.679688 18.515625 L 12.554688 18.660156 C 12.34375 18.90625 12.265625 19.027344 12.238281 19.078125 C 12.285156 19.171875 12.449219 19.339844 12.535156 19.382812 C 12.59375 19.355469 12.75 19.257812 13.015625 19.035156 L 13.148438 18.925781 L 13.300781 19.007812 C 13.464844 19.09375 13.640625 19.152344 13.820312 19.1875 L 14.011719 19.226562 L 14.027344 19.421875 C 14.050781 19.765625 14.082031 19.953125 14.105469 20.023438 Z M 14.105469 20.023438 " fill-opacity="1" fill-rule="nonzero"/><g fill="#f06236" fill-opacity="1"><g transform="translate(28.328126, 25.298354)"><g><path d="M 4.3125 -14.3125 C 3.875 -14.3125 3.429688 -14.09375 2.984375 -13.65625 L 2.984375 -1.625 L 4.125 -1.625 C 4.46875 -1.625 4.742188 -1.707031 4.953125 -1.875 C 5.160156 -2.050781 5.265625 -2.289062 5.265625 -2.59375 L 5.265625 -13.390625 C 5.265625 -14.003906 4.945312 -14.3125 4.3125 -14.3125 Z M 4.78125 -15.9375 C 6.394531 -15.9375 7.203125 -15.132812 7.203125 -13.53125 L 7.203125 -2.59375 C 7.203125 -1.78125 6.921875 -1.144531 6.359375 -0.6875 C 5.796875 -0.226562 5.03125 0 4.0625 0 L 1.046875 0 L 1.046875 -13.5625 C 1.046875 -13.914062 0.976562 -14.171875 0.84375 -14.328125 C 0.71875 -14.484375 0.484375 -14.5625 0.140625 -14.5625 C 0.128906 -14.988281 0.242188 -15.320312 0.484375 -15.5625 C 0.734375 -15.8125 1.128906 -15.9375 1.671875 -15.9375 C 2.222656 -15.9375 2.601562 -15.664062 2.8125 -15.125 C 3.457031 -15.664062 4.113281 -15.9375 4.78125 -15.9375 Z M 4.78125 -15.9375 "/></g></g></g><g fill="#f06236" fill-opacity="1"><g transform="translate(36.340432, 25.298354)"><g><path d="M 4.5625 -9.640625 C 4.5625 -9.960938 4.460938 -10.21875 4.265625 -10.40625 C 4.066406 -10.59375 3.820312 -10.6875 3.53125 -10.6875 C 2.925781 -10.6875 2.625 -10.429688 2.625 -9.921875 L 2.625 -6.421875 L 3.796875 -7.3125 C 4.304688 -7.6875 4.5625 -8.460938 4.5625 -9.640625 Z M 0.78125 -2.1875 L 0.78125 -9.859375 C 0.78125 -11.460938 1.722656 -12.265625 3.609375 -12.265625 C 5.503906 -12.265625 6.453125 -11.363281 6.453125 -9.5625 C 6.453125 -8.84375 6.316406 -8.179688 6.046875 -7.578125 C 5.785156 -6.972656 5.429688 -6.515625 4.984375 -6.203125 L 2.625 -4.578125 L 2.625 -2.359375 C 2.625 -1.671875 2.945312 -1.328125 3.59375 -1.328125 C 4.238281 -1.328125 4.5625 -1.707031 4.5625 -2.46875 L 4.5625 -3.046875 L 4.484375 -4.1875 C 4.703125 -4.238281 4.921875 -4.265625 5.140625 -4.265625 C 5.359375 -4.265625 5.566406 -4.234375 5.765625 -4.171875 C 6.148438 -4.066406 6.34375 -3.878906 6.34375 -3.609375 L 6.34375 -1.84375 C 6.34375 -1.1875 6.085938 -0.671875 5.578125 -0.296875 C 5.066406 0.0664062 4.382812 0.25 3.53125 0.25 C 1.695312 0.25 0.78125 -0.5625 0.78125 -2.1875 Z M 0.78125 -2.1875 "/></g></g></g><g fill="#f06236" fill-opacity="1"><g transform="translate(43.323631, 25.298354)"><g><path d="M 6.59375 -1.890625 C 6.59375 -1.203125 6.332031 -0.671875 5.8125 -0.296875 C 5.289062 0.0664062 4.625 0.25 3.8125 0.25 C 3 0.25 2.351562 0.0390625 1.875 -0.375 C 1.394531 -0.789062 1.15625 -1.351562 1.15625 -2.0625 L 1.15625 -10.546875 L 0.390625 -10.421875 C 0.273438 -10.847656 0.21875 -11.21875 0.21875 -11.53125 C 0.21875 -11.851562 0.328125 -12.015625 0.546875 -12.015625 L 1.203125 -12.015625 L 1.546875 -14.3125 C 1.609375 -14.675781 1.910156 -14.859375 2.453125 -14.859375 C 2.617188 -14.859375 2.796875 -14.84375 2.984375 -14.8125 L 2.984375 -12.015625 L 5.125 -12.015625 L 6.40625 -12.140625 C 6.476562 -11.710938 6.515625 -11.335938 6.515625 -11.015625 C 6.515625 -10.703125 6.410156 -10.546875 6.203125 -10.546875 L 2.984375 -10.546875 L 2.984375 -2.359375 C 2.984375 -2.015625 3.066406 -1.75 3.234375 -1.5625 C 3.410156 -1.375 3.628906 -1.28125 3.890625 -1.28125 C 4.503906 -1.28125 4.8125 -1.675781 4.8125 -2.46875 L 4.8125 -4.265625 L 4.734375 -5.421875 C 4.941406 -5.460938 5.15625 -5.484375 5.375 -5.484375 C 5.601562 -5.484375 5.8125 -5.453125 6 -5.390625 C 6.394531 -5.296875 6.59375 -5.109375 6.59375 -4.828125 Z M 6.59375 -1.890625 "/></g></g></g><g fill="#f06236" fill-opacity="1"><g transform="translate(50.257823, 25.298354)"><g><path d="M 2.921875 -2.015625 C 2.921875 -1.222656 2.976562 -0.566406 3.09375 -0.046875 C 2.601562 0.046875 2.070312 0.09375 1.5 0.09375 C 1.21875 0.09375 1.078125 -0.0234375 1.078125 -0.265625 L 1.078125 -9.984375 C 1.078125 -10.328125 1.015625 -10.570312 0.890625 -10.71875 C 0.773438 -10.863281 0.546875 -10.9375 0.203125 -10.9375 C 0.179688 -11.363281 0.285156 -11.691406 0.515625 -11.921875 C 0.753906 -12.148438 1.097656 -12.265625 1.546875 -12.265625 C 2.203125 -12.265625 2.609375 -11.9375 2.765625 -11.28125 C 3.179688 -11.9375 3.765625 -12.265625 4.515625 -12.265625 C 5.847656 -12.265625 6.515625 -11.617188 6.515625 -10.328125 L 6.515625 -7.875 C 6.515625 -7.59375 6.320312 -7.40625 5.9375 -7.3125 C 5.738281 -7.238281 5.53125 -7.203125 5.3125 -7.203125 C 5.09375 -7.203125 4.875 -7.226562 4.65625 -7.28125 C 4.707031 -7.644531 4.734375 -8.03125 4.734375 -8.4375 L 4.734375 -9.6875 C 4.734375 -10.226562 4.488281 -10.5 4 -10.5 C 3.769531 -10.5 3.554688 -10.390625 3.359375 -10.171875 C 3.160156 -9.960938 3.015625 -9.726562 2.921875 -9.46875 Z M 2.921875 -2.015625 "/></g></g></g><g fill="#f06236" fill-opacity="1"><g transform="translate(57.118509, 25.298354)"><g><path d="M 0.78125 -2.25 L 0.78125 -9.65625 C 0.78125 -10.476562 1.03125 -11.117188 1.53125 -11.578125 C 2.039062 -12.035156 2.726562 -12.265625 3.59375 -12.265625 C 4.46875 -12.265625 5.144531 -12.050781 5.625 -11.625 C 6.101562 -11.195312 6.34375 -10.570312 6.34375 -9.75 L 6.34375 -2.359375 C 6.34375 -1.535156 6.085938 -0.894531 5.578125 -0.4375 C 5.066406 0.0195312 4.375 0.25 3.5 0.25 C 2.632812 0.25 1.960938 0.0351562 1.484375 -0.390625 C 1.015625 -0.816406 0.78125 -1.4375 0.78125 -2.25 Z M 2.625 -9.75 L 2.625 -2.25 C 2.625 -1.976562 2.710938 -1.75 2.890625 -1.5625 C 3.066406 -1.375 3.289062 -1.28125 3.5625 -1.28125 C 3.832031 -1.28125 4.054688 -1.375 4.234375 -1.5625 C 4.421875 -1.75 4.515625 -1.976562 4.515625 -2.25 L 4.515625 -9.75 C 4.515625 -10.03125 4.421875 -10.265625 4.234375 -10.453125 C 4.054688 -10.640625 3.832031 -10.734375 3.5625 -10.734375 C 3.289062 -10.734375 3.066406 -10.640625 2.890625 -10.453125 C 2.710938 -10.265625 2.625 -10.03125 2.625 -9.75 Z M 2.625 -9.75 "/></g></g></g><g fill="#f06236" fill-opacity="1"><g transform="translate(64.248721, 25.298354)"><g><path d="M 1.984375 -14.25 C 1.285156 -14.25 0.9375 -14.710938 0.9375 -15.640625 C 0.9375 -16.566406 1.285156 -17.03125 1.984375 -17.03125 C 2.691406 -17.03125 3.046875 -16.566406 3.046875 -15.640625 C 3.046875 -14.710938 2.691406 -14.25 1.984375 -14.25 Z M 0.46875 -12.015625 L 2.921875 -12.015625 L 2.921875 -2.03125 C 2.921875 -1.6875 2.976562 -1.441406 3.09375 -1.296875 C 3.21875 -1.148438 3.453125 -1.078125 3.796875 -1.078125 C 3.816406 -0.648438 3.707031 -0.320312 3.46875 -0.09375 C 3.226562 0.132812 2.878906 0.25 2.421875 0.25 C 1.960938 0.25 1.625 0.109375 1.40625 -0.171875 C 1.1875 -0.453125 1.078125 -0.910156 1.078125 -1.546875 L 1.078125 -10.546875 L 0.3125 -10.421875 C 0.195312 -10.847656 0.140625 -11.21875 0.140625 -11.53125 C 0.140625 -11.851562 0.25 -12.015625 0.46875 -12.015625 Z M 0.46875 -12.015625 "/></g></g></g><g fill="#f06236" fill-opacity="1"><g transform="translate(68.242619, 25.298354)"><g><path d="M 6.59375 -1.890625 C 6.59375 -1.203125 6.332031 -0.671875 5.8125 -0.296875 C 5.289062 0.0664062 4.625 0.25 3.8125 0.25 C 3 0.25 2.351562 0.0390625 1.875 -0.375 C 1.394531 -0.789062 1.15625 -1.351562 1.15625 -2.0625 L 1.15625 -10.546875 L 0.390625 -10.421875 C 0.273438 -10.847656 0.21875 -11.21875 0.21875 -11.53125 C 0.21875 -11.851562 0.328125 -12.015625 0.546875 -12.015625 L 1.203125 -12.015625 L 1.546875 -14.3125 C 1.609375 -14.675781 1.910156 -14.859375 2.453125 -14.859375 C 2.617188 -14.859375 2.796875 -14.84375 2.984375 -14.8125 L 2.984375 -12.015625 L 5.125 -12.015625 L 6.40625 -12.140625 C 6.476562 -11.710938 6.515625 -11.335938 6.515625 -11.015625 C 6.515625 -10.703125 6.410156 -10.546875 6.203125 -10.546875 L 2.984375 -10.546875 L 2.984375 -2.359375 C 2.984375 -2.015625 3.066406 -1.75 3.234375 -1.5625 C 3.410156 -1.375 3.628906 -1.28125 3.890625 -1.28125 C 4.503906 -1.28125 4.8125 -1.675781 4.8125 -2.46875 L 4.8125 -4.265625 L 4.734375 -5.421875 C 4.941406 -5.460938 5.15625 -5.484375 5.375 -5.484375 C 5.601562 -5.484375 5.8125 -5.453125 6 -5.390625 C 6.394531 -5.296875 6.59375 -5.109375 6.59375 -4.828125 Z M 6.59375 -1.890625 "/></g></g></g><g fill="#f06236" fill-opacity="1"><g transform="translate(75.176811, 25.298354)"><g/></g></g><g fill="#f06236" fill-opacity="1"><g transform="translate(78.117105, 25.298354)"><g><path d="M 6.96875 -2.15625 C 6.96875 -1.46875 6.675781 -0.894531 6.09375 -0.4375 C 5.507812 0.0195312 4.75 0.25 3.8125 0.25 C 2.882812 0.25 2.148438 0.0351562 1.609375 -0.390625 C 1.078125 -0.816406 0.8125 -1.4375 0.8125 -2.25 L 0.8125 -13.578125 C 0.8125 -14.398438 1.085938 -15.039062 1.640625 -15.5 C 2.191406 -15.957031 2.9375 -16.1875 3.875 -16.1875 C 4.820312 -16.1875 5.570312 -15.976562 6.125 -15.5625 C 6.6875 -15.144531 6.96875 -14.597656 6.96875 -13.921875 L 6.96875 -10.890625 C 6.96875 -10.585938 6.753906 -10.378906 6.328125 -10.265625 C 6.097656 -10.203125 5.867188 -10.171875 5.640625 -10.171875 C 5.410156 -10.171875 5.179688 -10.195312 4.953125 -10.25 C 5.003906 -10.632812 5.03125 -11.050781 5.03125 -11.5 L 5.03125 -13.578125 C 5.03125 -13.890625 4.921875 -14.128906 4.703125 -14.296875 C 4.492188 -14.472656 4.21875 -14.5625 3.875 -14.5625 C 3.53125 -14.5625 3.253906 -14.472656 3.046875 -14.296875 C 2.847656 -14.128906 2.75 -13.890625 2.75 -13.578125 L 2.75 -2.359375 C 2.75 -2.054688 2.847656 -1.816406 3.046875 -1.640625 C 3.253906 -1.460938 3.53125 -1.375 3.875 -1.375 C 4.21875 -1.375 4.492188 -1.457031 4.703125 -1.625 C 4.921875 -1.800781 5.03125 -2.046875 5.03125 -2.359375 L 5.03125 -2.890625 L 4.953125 -4.140625 C 5.179688 -4.191406 5.410156 -4.21875 5.640625 -4.21875 C 5.867188 -4.21875 6.097656 -4.1875 6.328125 -4.125 C 6.753906 -4.007812 6.96875 -3.800781 6.96875 -3.5 Z M 6.96875 -2.15625 "/></g></g></g><g fill="#f06236" fill-opacity="1"><g transform="translate(85.737371, 25.298354)"><g><path d="M 0.78125 -2.25 L 0.78125 -9.65625 C 0.78125 -10.476562 1.03125 -11.117188 1.53125 -11.578125 C 2.039062 -12.035156 2.726562 -12.265625 3.59375 -12.265625 C 4.46875 -12.265625 5.144531 -12.050781 5.625 -11.625 C 6.101562 -11.195312 6.34375 -10.570312 6.34375 -9.75 L 6.34375 -2.359375 C 6.34375 -1.535156 6.085938 -0.894531 5.578125 -0.4375 C 5.066406 0.0195312 4.375 0.25 3.5 0.25 C 2.632812 0.25 1.960938 0.0351562 1.484375 -0.390625 C 1.015625 -0.816406 0.78125 -1.4375 0.78125 -2.25 Z M 2.625 -9.75 L 2.625 -2.25 C 2.625 -1.976562 2.710938 -1.75 2.890625 -1.5625 C 3.066406 -1.375 3.289062 -1.28125 3.5625 -1.28125 C 3.832031 -1.28125 4.054688 -1.375 4.234375 -1.5625 C 4.421875 -1.75 4.515625 -1.976562 4.515625 -2.25 L 4.515625 -9.75 C 4.515625 -10.03125 4.421875 -10.265625 4.234375 -10.453125 C 4.054688 -10.640625 3.832031 -10.734375 3.5625 -10.734375 C 3.289062 -10.734375 3.066406 -10.640625 2.890625 -10.453125 C 2.710938 -10.265625 2.625 -10.03125 2.625 -9.75 Z M 2.625 -9.75 "/></g></g></g><g fill="#f06236" fill-opacity="1"><g transform="translate(92.867583, 25.298354)"><g><path d="M 2.921875 -2.015625 C 2.921875 -1.210938 2.976562 -0.539062 3.09375 0 C 2.601562 0.0625 2.070312 0.09375 1.5 0.09375 C 1.21875 0.09375 1.078125 -0.0234375 1.078125 -0.265625 L 1.078125 -9.984375 C 1.078125 -10.328125 1.015625 -10.570312 0.890625 -10.71875 C 0.773438 -10.863281 0.546875 -10.9375 0.203125 -10.9375 C 0.179688 -11.363281 0.285156 -11.691406 0.515625 -11.921875 C 0.753906 -12.148438 1.140625 -12.265625 1.671875 -12.265625 C 2.203125 -12.265625 2.578125 -12.007812 2.796875 -11.5 C 3.304688 -12.007812 3.914062 -12.265625 4.625 -12.265625 C 5.332031 -12.265625 5.867188 -11.941406 6.234375 -11.296875 C 6.785156 -11.941406 7.398438 -12.265625 8.078125 -12.265625 C 8.753906 -12.265625 9.269531 -12.054688 9.625 -11.640625 C 9.988281 -11.234375 10.171875 -10.65625 10.171875 -9.90625 L 10.171875 -2.03125 C 10.171875 -1.6875 10.234375 -1.441406 10.359375 -1.296875 C 10.484375 -1.148438 10.71875 -1.078125 11.0625 -1.078125 C 11.070312 -0.648438 10.957031 -0.320312 10.71875 -0.09375 C 10.488281 0.132812 10.144531 0.25 9.6875 0.25 C 9.226562 0.25 8.882812 0.109375 8.65625 -0.171875 C 8.4375 -0.453125 8.328125 -0.910156 8.328125 -1.546875 L 8.328125 -9.75 C 8.328125 -10.289062 8.078125 -10.5625 7.578125 -10.5625 C 7.128906 -10.5625 6.785156 -10.3125 6.546875 -9.8125 L 6.546875 -2.015625 C 6.546875 -1.210938 6.601562 -0.539062 6.71875 0 C 6.226562 0.0625 5.695312 0.09375 5.125 0.09375 C 4.84375 0.09375 4.703125 -0.0234375 4.703125 -0.265625 L 4.703125 -9.75 C 4.703125 -10.289062 4.453125 -10.5625 3.953125 -10.5625 C 3.503906 -10.5625 3.160156 -10.3125 2.921875 -9.8125 Z M 2.921875 -2.015625 "/></g></g></g><g fill="#f06236" fill-opacity="1"><g transform="translate(104.0407, 25.298354)"><g><path d="M 2.921875 -1.5625 L 3.875 -1.5625 C 4.15625 -1.5625 4.378906 -1.644531 4.546875 -1.8125 C 4.722656 -1.988281 4.8125 -2.21875 4.8125 -2.5 L 4.8125 -9.734375 C 4.8125 -10.304688 4.570312 -10.59375 4.09375 -10.59375 C 3.84375 -10.59375 3.609375 -10.5 3.390625 -10.3125 C 3.171875 -10.125 3.015625 -9.921875 2.921875 -9.703125 Z M 2.921875 0 L 2.921875 1.96875 L 3.09375 3.578125 C 2.644531 3.753906 2.132812 3.84375 1.5625 3.84375 C 1.238281 3.84375 1.078125 3.722656 1.078125 3.484375 L 1.078125 -9.984375 C 1.078125 -10.328125 1.015625 -10.570312 0.890625 -10.71875 C 0.773438 -10.863281 0.546875 -10.9375 0.203125 -10.9375 C 0.179688 -11.363281 0.285156 -11.691406 0.515625 -11.921875 C 0.753906 -12.148438 1.140625 -12.265625 1.671875 -12.265625 C 2.203125 -12.265625 2.578125 -12.007812 2.796875 -11.5 C 3.304688 -12.007812 3.878906 -12.265625 4.515625 -12.265625 C 5.148438 -12.265625 5.660156 -12.046875 6.046875 -11.609375 C 6.441406 -11.171875 6.640625 -10.550781 6.640625 -9.75 L 6.640625 -2.59375 C 6.640625 -1.78125 6.382812 -1.144531 5.875 -0.6875 C 5.375 -0.226562 4.691406 0 3.828125 0 Z M 2.921875 0 "/></g></g></g><g fill="#f06236" fill-opacity="1"><g transform="translate(111.464946, 25.298354)"><g><path d="M 4.703125 -10 C 4.703125 -10.625 4.644531 -11.296875 4.53125 -12.015625 C 5.019531 -12.078125 5.550781 -12.109375 6.125 -12.109375 C 6.40625 -12.109375 6.546875 -11.988281 6.546875 -11.75 L 6.546875 -2.03125 C 6.546875 -1.6875 6.601562 -1.441406 6.71875 -1.296875 C 6.84375 -1.148438 7.078125 -1.078125 7.421875 -1.078125 C 7.441406 -0.648438 7.332031 -0.320312 7.09375 -0.09375 C 6.851562 0.132812 6.515625 0.25 6.078125 0.25 C 5.421875 0.25 5.003906 -0.00390625 4.828125 -0.515625 C 4.316406 -0.00390625 3.742188 0.25 3.109375 0.25 C 2.472656 0.25 1.957031 0.0351562 1.5625 -0.390625 C 1.175781 -0.828125 0.984375 -1.445312 0.984375 -2.25 L 0.984375 -9.984375 C 0.984375 -10.328125 0.921875 -10.570312 0.796875 -10.71875 C 0.671875 -10.863281 0.4375 -10.9375 0.09375 -10.9375 C 0.0820312 -11.34375 0.203125 -11.664062 0.453125 -11.90625 C 0.703125 -12.144531 1.054688 -12.265625 1.515625 -12.265625 C 1.972656 -12.265625 2.300781 -12.128906 2.5 -11.859375 C 2.707031 -11.597656 2.8125 -11.164062 2.8125 -10.5625 L 2.8125 -2.28125 C 2.8125 -1.707031 3.050781 -1.421875 3.53125 -1.421875 C 3.769531 -1.421875 4 -1.515625 4.21875 -1.703125 C 4.445312 -1.890625 4.609375 -2.085938 4.703125 -2.296875 Z M 4.703125 -10 "/></g></g></g><g fill="#f06236" fill-opacity="1"><g transform="translate(119.085213, 25.298354)"><g><path d="M 6.59375 -1.890625 C 6.59375 -1.203125 6.332031 -0.671875 5.8125 -0.296875 C 5.289062 0.0664062 4.625 0.25 3.8125 0.25 C 3 0.25 2.351562 0.0390625 1.875 -0.375 C 1.394531 -0.789062 1.15625 -1.351562 1.15625 -2.0625 L 1.15625 -10.546875 L 0.390625 -10.421875 C 0.273438 -10.847656 0.21875 -11.21875 0.21875 -11.53125 C 0.21875 -11.851562 0.328125 -12.015625 0.546875 -12.015625 L 1.203125 -12.015625 L 1.546875 -14.3125 C 1.609375 -14.675781 1.910156 -14.859375 2.453125 -14.859375 C 2.617188 -14.859375 2.796875 -14.84375 2.984375 -14.8125 L 2.984375 -12.015625 L 5.125 -12.015625 L 6.40625 -12.140625 C 6.476562 -11.710938 6.515625 -11.335938 6.515625 -11.015625 C 6.515625 -10.703125 6.410156 -10.546875 6.203125 -10.546875 L 2.984375 -10.546875 L 2.984375 -2.359375 C 2.984375 -2.015625 3.066406 -1.75 3.234375 -1.5625 C 3.410156 -1.375 3.628906 -1.28125 3.890625 -1.28125 C 4.503906 -1.28125 4.8125 -1.675781 4.8125 -2.46875 L 4.8125 -4.265625 L 4.734375 -5.421875 C 4.941406 -5.460938 5.15625 -5.484375 5.375 -5.484375 C 5.601562 -5.484375 5.8125 -5.453125 6 -5.390625 C 6.394531 -5.296875 6.59375 -5.109375 6.59375 -4.828125 Z M 6.59375 -1.890625 "/></g></g></g><g fill="#f06236" fill-opacity="1"><g transform="translate(126.019405, 25.298354)"><g><path d="M 4.5625 -9.640625 C 4.5625 -9.960938 4.460938 -10.21875 4.265625 -10.40625 C 4.066406 -10.59375 3.820312 -10.6875 3.53125 -10.6875 C 2.925781 -10.6875 2.625 -10.429688 2.625 -9.921875 L 2.625 -6.421875 L 3.796875 -7.3125 C 4.304688 -7.6875 4.5625 -8.460938 4.5625 -9.640625 Z M 0.78125 -2.1875 L 0.78125 -9.859375 C 0.78125 -11.460938 1.722656 -12.265625 3.609375 -12.265625 C 5.503906 -12.265625 6.453125 -11.363281 6.453125 -9.5625 C 6.453125 -8.84375 6.316406 -8.179688 6.046875 -7.578125 C 5.785156 -6.972656 5.429688 -6.515625 4.984375 -6.203125 L 2.625 -4.578125 L 2.625 -2.359375 C 2.625 -1.671875 2.945312 -1.328125 3.59375 -1.328125 C 4.238281 -1.328125 4.5625 -1.707031 4.5625 -2.46875 L 4.5625 -3.046875 L 4.484375 -4.1875 C 4.703125 -4.238281 4.921875 -4.265625 5.140625 -4.265625 C 5.359375 -4.265625 5.566406 -4.234375 5.765625 -4.171875 C 6.148438 -4.066406 6.34375 -3.878906 6.34375 -3.609375 L 6.34375 -1.84375 C 6.34375 -1.1875 6.085938 -0.671875 5.578125 -0.296875 C 5.066406 0.0664062 4.382812 0.25 3.53125 0.25 C 1.695312 0.25 0.78125 -0.5625 0.78125 -2.1875 Z M 0.78125 -2.1875 "/></g></g></g><g fill="#f06236" fill-opacity="1"><g transform="translate(133.002604, 25.298354)"><g><path d="M 2.921875 -2.015625 C 2.921875 -1.222656 2.976562 -0.566406 3.09375 -0.046875 C 2.601562 0.046875 2.070312 0.09375 1.5 0.09375 C 1.21875 0.09375 1.078125 -0.0234375 1.078125 -0.265625 L 1.078125 -9.984375 C 1.078125 -10.328125 1.015625 -10.570312 0.890625 -10.71875 C 0.773438 -10.863281 0.546875 -10.9375 0.203125 -10.9375 C 0.179688 -11.363281 0.285156 -11.691406 0.515625 -11.921875 C 0.753906 -12.148438 1.097656 -12.265625 1.546875 -12.265625 C 2.203125 -12.265625 2.609375 -11.9375 2.765625 -11.28125 C 3.179688 -11.9375 3.765625 -12.265625 4.515625 -12.265625 C 5.847656 -12.265625 6.515625 -11.617188 6.515625 -10.328125 L 6.515625 -7.875 C 6.515625 -7.59375 6.320312 -7.40625 5.9375 -7.3125 C 5.738281 -7.238281 5.53125 -7.203125 5.3125 -7.203125 C 5.09375 -7.203125 4.875 -7.226562 4.65625 -7.28125 C 4.707031 -7.644531 4.734375 -8.03125 4.734375 -8.4375 L 4.734375 -9.6875 C 4.734375 -10.226562 4.488281 -10.5 4 -10.5 C 3.769531 -10.5 3.554688 -10.390625 3.359375 -10.171875 C 3.160156 -9.960938 3.015625 -9.726562 2.921875 -9.46875 Z M 2.921875 -2.015625 "/></g></g></g></svg>